<svg width="29" height="43" viewBox="0 0 29 43" fill="none" xmlns="http://www.w3.org/2000/svg">
<path d="M14.5 0.000488281C6.50485 0.000488281 0 6.43058 0 14.3338C0 16.7064 0.600078 19.0588 1.74085 21.1453L13.7071 42.5386C13.8664 42.8238 14.1699 43.0005 14.5 43.0005C14.8301 43.0005 15.1336 42.8238 15.2929 42.5386L27.2636 21.1383C28.3999 19.0588 29 16.7063 29 14.3338C29 6.43058 22.4951 0.000488281 14.5 0.000488281ZM14.5 21.5005C10.5024 21.5005 7.25004 18.2855 7.25004 14.3338C7.25004 10.3822 10.5024 7.16721 14.5 7.16721C18.4976 7.16721 21.75 10.3822 21.75 14.3338C21.75 18.2855 18.4976 21.5005 14.5 21.5005Z" fill="#F5CC3D"/>
</svg>
