<svg width="154" height="44" viewBox="0 0 154 44" fill="none" xmlns="http://www.w3.org/2000/svg">
  <path d="M8.96522 4.72264V16.4591C8.96522 19.9504 7.77297 21.8363 5.38842 22.1169C7.77297 22.3974 8.96522 24.2678 8.96522 27.7279V39.2774C8.96522 39.9944 9.08906 40.4931 9.33683 40.7736C9.5846 41.0853 10.0491 41.2412 10.7304 41.2412H16.862V44H9.19747C7.64905 44 6.54972 43.6415 5.89939 42.9245C5.28003 42.2076 4.97035 41.101 4.97035 39.6047V28.7099C4.97035 26.8707 4.6297 25.5459 3.94841 24.7354C3.29808 23.8937 2.26066 23.4729 0.836134 23.4729H0V20.7141H0.836134C2.29163 20.7141 3.34454 20.2933 3.99486 19.4516C4.64519 18.61 4.97035 17.2696 4.97035 15.4304V4.39533C4.97035 2.89904 5.28003 1.79242 5.89939 1.07545C6.54972 0.358483 7.64905 0 9.19747 0H16.862V2.75877H10.7304C10.0491 2.75877 9.5846 2.91463 9.33683 3.22636C9.08906 3.50691 8.96522 4.00567 8.96522 4.72264ZM39.4526 18.3762H35.4577V15.1966C35.4577 14.6043 35.3648 14.2147 35.179 14.0276C34.9932 13.8406 34.6061 13.7471 34.0177 13.7471H24.1699C23.5815 13.7471 23.1944 13.8406 23.0086 14.0276C22.8228 14.2147 22.7299 14.6043 22.7299 15.1966V29.458C22.7299 30.0815 22.8228 30.4867 23.0086 30.6738C23.1944 30.8296 23.5815 30.9075 24.1699 30.9075H34.0177C34.6061 30.9075 34.9932 30.8296 35.179 30.6738C35.3648 30.4867 35.4577 30.0815 35.4577 29.458V26.2784H39.4526V29.9724C39.4526 32.435 38.2293 33.6663 35.7829 33.6663H22.4047C19.9582 33.6663 18.735 32.435 18.735 29.9724V14.6823C18.735 12.2197 19.9582 10.9883 22.4047 10.9883H35.7829C38.2293 10.9883 39.4526 12.2197 39.4526 14.6823V18.3762ZM63.3724 29.458V15.1966C63.3724 14.6043 63.2795 14.2147 63.0937 14.0276C62.9388 13.8406 62.5517 13.7471 61.9324 13.7471H51.3413C50.7219 13.7471 50.3194 13.8406 50.1336 14.0276C49.9787 14.2147 49.9013 14.6043 49.9013 15.1966V29.458C49.9013 30.0815 49.9787 30.4867 50.1336 30.6738C50.3194 30.8296 50.7219 30.9075 51.3413 30.9075H61.9324C62.5517 30.9075 62.9388 30.8296 63.0937 30.6738C63.2795 30.4867 63.3724 30.0815 63.3724 29.458ZM49.6226 10.9883H63.6511C66.0975 10.9883 67.3208 12.2197 67.3208 14.6823V29.9724C67.3208 32.435 66.0975 33.6663 63.6511 33.6663H49.6226C47.1762 33.6663 45.9529 32.435 45.9529 29.9724V14.6823C45.9529 12.2197 47.1762 10.9883 49.6226 10.9883ZM80.1932 30.9075H90.4126C90.97 30.9075 91.3731 30.7829 91.6204 30.5335C91.8684 30.2841 91.992 29.8632 91.992 29.271V15.3836C91.992 14.7914 91.8684 14.3706 91.6204 14.1211C91.3731 13.8717 90.97 13.7471 90.4126 13.7471H80.1932C79.6051 13.7471 79.2177 13.8406 79.0319 14.0276C78.8461 14.2147 78.7532 14.6043 78.7532 15.1966V29.458C78.7532 30.0815 78.8461 30.4867 79.0319 30.6738C79.2177 30.8296 79.6051 30.9075 80.1932 30.9075ZM91.992 2.3847H95.9868V33.6663H91.992V32.17C91.5896 33.1676 90.7378 33.6663 89.4371 33.6663H78.428C75.9818 33.6663 74.7583 32.435 74.7583 29.9724V14.6823C74.7583 12.2197 75.9818 10.9883 78.428 10.9883H89.4371C90.7378 10.9883 91.5896 11.487 91.992 12.4846V2.3847ZM107.876 20.6674H121.626V15.1966C121.626 14.6043 121.533 14.2147 121.347 14.0276C121.162 13.8406 120.775 13.7471 120.186 13.7471H109.316C108.728 13.7471 108.341 13.8406 108.155 14.0276C107.969 14.2147 107.876 14.6043 107.876 15.1966V20.6674ZM107.551 10.9883H121.905C124.352 10.9883 125.574 12.2197 125.574 14.6823V23.4261H107.876V29.458C107.876 30.0815 107.969 30.4867 108.155 30.6738C108.341 30.8296 108.728 30.9075 109.316 30.9075H120.047C120.666 30.9075 121.054 30.8296 121.208 30.6738C121.394 30.4867 121.487 30.0815 121.487 29.458V27.2604H125.435V29.9724C125.435 32.435 124.212 33.6663 121.765 33.6663H107.551C105.105 33.6663 103.881 32.435 103.881 29.9724V14.6823C103.881 12.2197 105.105 10.9883 107.551 10.9883ZM131.622 33.6663V28.2423H136.221V33.6663H131.622ZM145.035 16.4591V4.72264C145.035 4.00567 144.911 3.50691 144.663 3.22636C144.416 2.91463 143.951 2.75877 143.27 2.75877H137.138V0H144.803C146.351 0 147.435 0.358483 148.054 1.07545C148.704 1.79242 149.03 2.89904 149.03 4.39533V15.4304C149.03 17.2696 149.355 18.61 150.005 19.4516C150.655 20.2933 151.709 20.7141 153.164 20.7141H154V23.4729H153.164C151.74 23.4729 150.687 23.8937 150.005 24.7354C149.355 25.5459 149.03 26.8707 149.03 28.7099V39.6047C149.03 41.101 148.704 42.2076 148.054 42.9245C147.435 43.6415 146.351 44 144.803 44H137.138V41.2412H143.27C143.951 41.2412 144.416 41.0853 144.663 40.7736C144.911 40.4931 145.035 39.9944 145.035 39.2774V27.7279C145.035 24.2678 146.228 22.3974 148.612 22.1169C146.228 21.8363 145.035 19.9504 145.035 16.4591Z" fill="#FED136" />
</svg>
